<?xml version="1.0" encoding="utf-8"?>

<svg version="1.1" id="Слой_1" xmlns="http://www.w3.org/2000/svg" xmlns:xlink="http://www.w3.org/1999/xlink" x="0px" y="0px"
	 viewBox="0 0 1024 1024" style="enable-background:new 0 0 1024 1024;" xml:space="preserve">
<style type="text/css">
	.st0{fill:#3B1B2A;}
	.st1{fill:#6B94AA;}
	.st2{fill:#515151;}
	.st3{fill:#3E3E3E;}
	.st4{fill:#9D9EA2;}
	.st5{fill:#69646A;}
	.st6{fill:#C1C1C1;}
	.st7{opacity:0.45;fill:#3B1B2A;}
	.st8{fill:#B1D9E8;}
</style>
<g>
	<path class="st0" d="M1009.4,711.4c-11.3-43.9-37.8-82.5-63.4-119.8c-4.4-6.4-8.8-12.8-13.2-19.4c-33.5-46.9-67-86.2-102.4-120.4
		c-30-27.9-62.6-56.2-102.9-68.7c-14.1-3.5-28.9-5.3-43.9-5.3c-45.4,0-94.4,15.9-146.4,47.3c-4.8-6.6-9.1-12.6-12.3-17.4
		c13.8-15,29.2-29.7,45.5-45.1c19.8-18.8,40.4-38.3,58.2-59.1c1.4-1.8,2.9-3.5,4.4-5.3c7.5-8.9,15.9-19,19.3-32.7
		c0.6-3.3,0.2-6.8,0-9.7c-0.1-0.9-0.2-1.7-0.3-3.1c-7.7-60-19.4-127-36.9-211.4c-0.4-1.4-0.7-3-1.1-4.7c-1.1-5.2-2.4-11.2-5.9-16.4
		c-3-3.7-5.9-5.1-8.3-6.2c-0.5-0.2-1-0.4-1.5-0.6c-26.4-6.9-52.7-8-78.2-9.2c-8.6-0.4-17.3-0.7-26.3-1.4C432.3,1,384.8,0,339.9,0
		c-47.2,0-90.2,1.1-131.8,3.4c-5.1,0.5-10.2,0.9-15.4,1.2C175.7,5.9,158,7.1,141,13.9c-0.3,0.1-1.1,0.6-1.4,0.7
		c-0.9,0.5-1.9,1-3.3,2.2c-2.5,2-3.7,3.6-4.3,4.6l-0.8,1.2c-1.7,2.4-3.1,4.5-3.6,6c-14.5,29.7-25.5,60.9-36.2,91
		c-2.5,7.1-5,14.1-7.6,21.4c-4.1,12.4-8.3,24.7-12.4,37.1C50.3,240,28.6,304.2,17.1,371.2c-0.2,2.5-0.6,8.8,1.1,15
		c2.1,5.9,5.6,11.6,8.8,16.7c19.3,27.5,42,52.6,64.1,76.8c13.8,15.2,28.1,30.9,41.2,46.9c5.5,8.2,16,8.6,22.4,8.8l2.5,0.1
		c53.6-1.2,95.5-8,132-21.6c6.2-2.3,17.4-8.9,19.9-19.1c1.4-5.7-0.3-11.5-4.7-16.3L288,461.2c-22.9-24.1-43.4-46-62.4-69.3
		c-2.2-3-4.6-6-7.1-9c-6.4-7.9-13-16-15.9-24.1c3.1-24.3,10.8-49.2,18.4-73.3c1.4-4.6,2.8-9.1,4-13.1c2.7-7.2,5.3-14.7,7.9-22.3
		c7.5-21.9,15.2-44.6,28.1-61.4c19.2-5.5,40.3-6.5,60.8-7.5c6.8-0.3,13.5-0.7,19.9-1.1c17.9-0.6,39.2-1.3,60.7-1.3
		c20.3,0,38.4,0.6,55.5,1.8c0.9,0.1,1.9,0.2,3,0.3c0.4,10.9-0.5,22.7-1.5,34.2l-0.4,5.2c-1.7,15.7-3.5,30.8-7.2,42.7
		c-0.6,1.8-0.6,1.8-2.6,3.8c-10,10.2-27.6,24.1-43.1,36.4c-7.1,5.6-13.7,10.9-19,15.3c-2.5,2.1-5,4.2-7.6,6.2
		c-9.7,7.9-19.7,16.1-29.5,26.4c-0.2,0.3-0.5,0.5-0.7,0.8l-0.8,1c-1.6,2.1-3.8,4.9-4.9,8.9c-2.2,7.3-2.1,13.7-1.9,19.8l0.1,3.3
		c1.4,26.3,6,51.4,10.4,72.5l0.3,1.2c2.5,11.5,5.8,27.3,15.2,37l7.6,9.5c12.2,14.5,24.9,29.4,38.2,44.3c-33,55.1-73.6,128-41.1,193
		c30.5,54.7,73.2,101.1,114.6,146l12.9,14c25.8,26.9,60.2,61.8,99,94.1c2.2,1.7,4.4,3.4,6.5,5.2c9.6,7.7,20.4,16.5,34.8,20.7
		c5.7,1.2,11.8,1.8,18.6,1.8c3.8,0,7.5-0.2,11.6-0.5c169.6-20.6,312.3-150.3,339.3-308.4C1009.8,713.9,1009.8,712.6,1009.4,711.4z"
		/>
	<path class="st1" d="M589.2,511c36.9,75.4-75.3,114.9-97.4,101.7c-10.5-6.4-36.5-34.3-61.8-63.1c-27.9-31.9-54.6-65.1-57.8-71.3
		c-5.9-11.8-20.6-100.3-13.2-113.6c5.1-9.3,50.5-43.1,80.6-67.5c13-10.6,23-19.6,25.7-24c8.9-14.7,14.7-94.4,10.4-104.8
		c-4.4-10.4-203.7-4.4-222.9,8.9c-4,2.8-9.2,11.7-14.9,24.4c-21,46.7-48.2,143.6-47.1,158.6c1.5,19.2,104.8,125.5,104.8,125.5
		c25.2,26.5-146.8,44.3-152,33.9c-5.1-10.4-103.3-112.1-111-138.7c-7.7-26.6,96.2-329.1,114-349.8c17.7-20.6,442.8-14.4,448.7,0
		c5.8,14.5,42.7,203.7,44.2,230.3c1.5,26.5-129.8,140.2-126.8,146.1c1.8,3.7,8.2,12.4,26.9,37.2C550.7,460,566.7,481.2,589.2,511z"
		/>
	<path class="st2" d="M1000.2,713.6c-19.2,87.8-66,152.3-119.9,198.2c-33.6,28.6-69.9,50-104.1,65.2c-27.6,12.3-53.8,20.5-75.9,25.4
		c-29.1,6.4-51.3,7-60.9,2.9c-12.2-5.1-39.8-26.9-72.9-56.8c-43.6-39.6-96.8-93.4-136.3-142.2c-10.8-13.2-20.5-26.1-28.8-38.3
		c-14.4-21.1-24.4-39.7-27.4-54c-11.4-52.8,29.8-125.1,56-164.3c25.2,28.8,51.2,56.7,61.8,63.1c22.2,13.2,134.3-26.3,97.4-101.7
		c-22.4-29.8-38.5-51-49.9-66.2c60.6-38.8,123.4-55.2,172.7-47.2c3.7,0.5,7.6,1.4,11.6,2.6c20.1,5.8,42.4,19.1,65.3,37.1
		c56.4,44.4,116.8,117.5,158.4,178.4c0.9,1.3,1.7,2.5,2.5,3.7C978.8,662.2,998.2,698.4,1000.2,713.6z"/>
	<path class="st3" d="M947.3,615.7c-2.3,78.6-61.7,136.7-61.7,136.7s-69.4-112.9-71.4-117c-2-4,71.2,69.2,76.4,67
		c5.1-2.1,33.1-49.5,25.8-82.5c-7.2-32.9-132.9-176.6-132.9-176.6l5.5-6C845.2,481.6,905.6,554.8,947.3,615.7z"/>
	<path class="st3" d="M814.1,831.9c-29.1,23.1-64.1,45.4-106.6,65.7c-75.3-86-183.7-206.2-203.7-208.5
		c-64.6,23.1-110.8,12.7-111.9,19.6c-1.2,7,11.6,57.7,11.6,57.7l-2.3,1.6c-14.4-21.1-24.4-39.7-27.4-54
		c-11.4-52.8,29.8-125.1,56-164.3c25.2,28.8,51.2,56.7,61.8,63.1c22.2,13.2,134.3-26.3,97.4-101.7c-22.4-29.8-38.5-51-49.9-66.2
		c60.6-38.8,123.4-55.2,172.7-47.2c3.7,0.5,7.6,1.4,11.6,2.6c5.1,2.8,10,6.1,14.5,9.7c58.9,47.3-115.4,200.8-114.2,206.9
		C624.7,620.7,737.8,744.6,814.1,831.9z"/>
	<path class="st3" d="M633.9,927.8c-21.1,7.4-43.5,14.4-67.4,20.6c-43.6-39.6-96.8-93.4-136.3-142.2v-64.5l39.5,12.1L633.9,927.8z"
		/>
	<path class="st4" d="M1000.2,713.6c-5.7,25.8-13.7,49.6-23.7,71.4c-10,22.3-22,42.7-35.4,61.2c-12.4,17.1-26,32.7-40.4,46.8
		c-6.6,6.5-13.5,12.8-20.4,18.7c-33.6,28.6-69.9,50-104.1,65.2c-0.3,0.2-0.7,0.3-1,0.4c-8.9,3.9-17.6,7.5-26.1,10.5
		c-17.5,6.4-34,11.2-48.7,14.4c-8.7,1.9-16.8,3.3-24.1,4.3c-1.6,0.2-3.1,0.3-4.6,0.4c-8.8,0.9-16.3,1-22.2,0.4
		c-1.7-0.2-3.2-0.4-4.6-0.7c-2.1-0.3-3.9-1-5.4-1.6c-12.2-5.1-39.8-26.9-72.9-56.8c23.9-6.3,46.4-13.2,67.4-20.6
		c18.6-6.5,36.2-13.4,52.7-20.6c7.2-3.1,14.2-6.4,21-9.6c42.5-20.3,77.5-42.5,106.6-65.7c7.6-6,14.8-12.1,21.6-18.3c0,0,0,0,0.1-0.1
		l0.3-0.3c13.6-12.2,25.6-24.5,36.1-36.9c19.1-22,33.5-43.8,44.6-64.4c20-37.1,29.1-69.9,33-92.6
		C978.8,662.2,998.2,698.4,1000.2,713.6z"/>
	<path class="st5" d="M882.4,916.5c-4.6,9.2-100.9,66.7-100.9,66.7s-1.9-2.2-5.3-6.3c-10.8-12.6-36.7-42.9-68.6-79.3
		c42.5-20.3,77.5-42.5,106.6-65.7c32.7,37.6,58.7,68.3,66.1,79.9C881.9,914.3,882.6,915.9,882.4,916.5z"/>
	<path class="st5" d="M702.1,1000l-1.8,2.3c-8.7,1.9-16.8,3.3-24.1,4.3c-1.6,0.2-3.1,0.3-4.6,0.4c-8.8,0.9-16.3,1-22.2,0.4
		c-1.7-0.2-3.2-0.4-4.6-0.7c-2.1-0.3-3.9-1-5.4-1.6c-12.2-5.1-39.8-26.9-72.9-56.8c23.9-6.3,46.4-13.2,67.4-20.6L702.1,1000z"/>
	<path class="st5" d="M1000.2,713.6c-5.7,25.8-13.7,49.6-23.7,71.4l-59.7-73c20-37.1,29.1-69.9,33-92.6
		C978.8,662.2,998.2,698.4,1000.2,713.6z"/>
	<path class="st6" d="M941.1,846.3c-12.4,17.1-26,32.7-40.4,46.8l-65-79.4c0,0,0,0,0.1-0.1l0.3-0.3c13.6-12.2,25.6-24.5,36.1-36.9
		C882.2,786.2,912.5,817,941.1,846.3z"/>
	<path class="st6" d="M775.1,977.4c-8.9,3.9-17.6,7.5-26.1,10.5l-62.4-80.7c7.2-3.1,14.2-6.4,21-9.6l63.3,73.3L775.1,977.4z"/>
	<path class="st0" d="M1000.6,713.6c-21.9,124.2-118,226.3-234.3,270.4c-23.1,9.2-47.1,16.2-71.4,21.1c-18.3,2.9-37.6,6.8-55.9,1.3
		c-27.6-14.6-50.1-36.7-73.9-56.5c0,0-2.8-2.4-2.8-2.4l3.6-1.1c84.1-24.8,168.4-58.5,238.1-112.9c71.6-54.1,128.4-131.6,144.4-221.1
		C968.3,644.5,991.7,676.4,1000.6,713.6L1000.6,713.6z M999.7,713.6c-9.9-34-32.9-63.2-52.2-92.6c0,0,4.9-1,4.9-1
		c-18.4,112.6-102.3,203.1-198.8,258c-5.2,2.7-32.4,17.2-37,19.7c-5.1,2.3-17.8,7.8-23,10.1c-40.1,18.4-84.1,31-126.6,42.7
		c0,0,0.9-3.5,0.9-3.5c22.8,20.4,45.2,42.5,72.1,57.1c17.4,5.3,36.6,0.9,54.2-2.1C837.3,969,965.2,859,999.7,713.6L999.7,713.6z"/>
	<path class="st0" d="M589.9,510.5c30.9,57.2-38.2,108.2-91.2,106.2c-8.6-0.6-14.8-7.3-20.9-12.5c-34.5-32.8-65.5-68.5-96-104.9
		c0,0-7.5-9.3-7.5-9.3c-8.5-8.8-11.4-23.4-13.7-34.6c-4.9-23.5-9-47-10.2-71.1c-0.1-6.9-0.6-13,1.5-20.1c0.8-3.2,2.7-5.1,4.3-7.3
		c11.9-12.5,24.1-21.7,36.4-32c16.8-14,47.7-36.9,62.7-52.2c2.7-2.7,3.5-3.8,4.6-7c4.2-13.3,6-29.4,7.6-44.6
		c1.3-16.6,3.2-34,1.3-49.6c0-0.3-0.1-0.2,0.6,1c0.9,1,0.9,1,1.2,1.2c-1.9-0.5-8.2-1.6-12.3-1.9c-38.8-2.8-78.1-1.9-117.1-0.5
		c-28.4,2-58.2,1.4-85.4,9.8c-19.6,24-27.8,58.9-39,88.1c-9,29.4-19.6,59.9-23.1,90.3c4.1,13.8,16.2,25.9,24.9,37.5
		c19.9,24.3,41.5,47.3,63.1,70.1c0,0,16.4,17.2,16.4,17.2c8.4,9-4.1,18.3-11.9,21.2c-41.3,15.3-85.5,20.1-129.2,21.1
		c-5.2-0.3-14.3,0-17.6-5.4c-34.1-41.7-74.1-79-105.2-123.5c-2.7-4.3-5.9-9.5-7.7-14.6c-1-3.4-1-8-0.7-11.3
		C39.3,293.4,67,218.9,91.9,143.6c13.6-37.4,25.8-75.2,43.4-111.3c0.7-1.9,2.9-4.7,4-6.4c0.2-0.4,1.4-1.6,2.4-2.4
		c1.2-1,1.7-1.2,2.5-1.6c20.8-8.3,43.4-7.7,64.8-9.9c95-5.3,189.5-3.6,284.4-0.3c34.5,2.4,68.5,1.3,102.6,10.2
		c1.8,0.8,3.4,1.4,5.2,3.8c3.1,4.6,4,12.8,5.5,18c14.3,69,27.7,140.3,36.6,210.1c0.1,2.8,0.9,7.2,0.4,10.1
		c-3.3,13.6-13.5,23.7-21.9,34.1C589,336.6,546,370.9,514,407.1C526.9,427.5,575.2,490.1,589.9,510.5L589.9,510.5z M588.4,511.4
		c-11.1-14.8-61.7-81-71.4-94.1c0,0-3.4-4.9-3.4-4.9l-1.7-2.5c-0.6-1.3-1.1-1.2-1.2-3c11-17.1,27.6-29.7,41-44.7
		c22-22.5,44.2-45,64-69.1c7.1-9.4,15.9-18.9,18.7-30.3c0.1-0.7,0.1-0.8-0.1-2c0,0-0.7-5.6-0.7-5.6
		c-11.7-68.7-27.3-139.5-42.6-207.7c-1.2-4.5-2.2-9-3.6-13.1c-0.2-0.6,0.1,0.4,0.7,1.3c0.6,0.9,1.6,1.4,1.4,1.3
		c0,0.1,0.6,0.3,0.1,0.1c-31-6.2-65.1-5.9-97.1-7.8c-94-3.3-188.8-3.7-282.6,0.8c-18.5,0.9-43.2,2.9-57.3,6.9
		c-19,35.2-31.2,74.4-45.6,112c-21,59.2-41.5,118.8-58.5,179.1c-4.2,16.6-9.5,33.3-10.3,49.7c0.1,0.5-0.1,0.9,0.2,1.6l0.9,2.2
		c4.5,10.1,11.7,19.2,18.3,28.3c27,35.7,58.7,69.4,87,104.3c0,0,2,3,2,3c0.5,1,0.1-0.4-0.3-0.4c-0.5-0.2,0.3,0.1,0.3,0.1
		c13.5,6.5,158-7.1,146.5-28.8c-26.9-28.5-54-57.7-79.3-87.6c-9.7-13.2-22.6-24.3-26.6-40.8c7.5-54,26.4-109.2,46-160.1
		c4.5-9.2,8-20.4,17.2-27.2c28.5-10.8,59.7-10.3,89.7-13.4c43.8-2.1,88-6.2,131.7-0.2c3.2,1,6.4,1.4,9,4.8c1.8,2.9,1.7,4.3,2.3,6.8
		c1.9,17.9,0.3,34.9-1,52c-2.3,18-2.5,37.7-11.3,55.4c-4.1,5.8-9,9.7-13.9,14.2c-27.1,23.7-65.2,49.7-91,74c-1.9,2.1-2,2.9-2.5,6.8
		c-0.9,11.1,0.1,22.7,1.1,34c2.4,22.4,5.1,46.8,11.3,68.2c2.1,5.1,9.4,13.4,12.7,18.3c28.9,37,58.9,73.9,91.8,107.3
		c5.5,4.9,10.6,11.3,18.3,12.1C550.4,615.8,618.1,567.2,588.4,511.4L588.4,511.4z"/>
	<path class="st0" d="M1001,713.6C973.9,873.1,827,995.7,669.3,1014.9c-9,0.7-18.3,0.8-27.4-1.2c-15-4.4-26.4-15.4-37.9-24.3
		c-34.9-29.1-66.8-60.8-98-93.3c-45.6-49.7-93.2-98.8-126.2-158.2c-31.6-63.1,12.8-137.5,45.3-191.6c2-3.2,6.8-3.5,9.2-0.6
		c18.4,19.7,36.2,40.1,56.5,57.5c4.6,3.7,5.7,4.3,10.7,4.6c9.1,0.4,19.5-2,29-5.4c41.1-14,70.6-49,51.8-86.3
		c0,0-50.3-65.9-50.3-65.9c-3.1-4-2.3-9.7,1.7-12.8c55.9-35.4,124.8-62.4,191.8-45.9c38.6,12.1,70.3,39.9,99.1,66.7
		c37.8,36.4,71,76.7,101.3,119.1C954.2,619.7,988.1,663.7,1001,713.6L1001,713.6z M999.3,713.5c-16.6-48.3-51.6-89.2-81.4-130.2
		c-31.7-40.4-65.9-79.2-103.5-114.1c-28.2-24.9-57.7-49.5-93.7-60.7c-60.9-13.7-124.1,11.6-176.4,43.9c0,0,2.4-13.2,2.4-13.2
		l49.4,66.5c6,11,9.2,23.9,8.8,37c-3.7,49.7-59.2,79.7-104.4,79.4c-12.9-0.2-22.5-11.7-30.9-19.8c-15.5-15.8-29.8-32.4-43.9-49.1
		c0,0,9.2-0.6,9.2-0.6c-29.7,44.9-61.7,95.8-59.1,151.6c4.4,33,26.8,60.4,45.9,86.8c27.6,35.1,58.2,68,90.4,99.1
		c32.2,31,65.3,61.4,100.5,88.5c10.7,7.6,20.9,16.7,32.8,20.5c29.1,3.3,58.6-5.3,86.7-13.8c41.9-13.5,81.8-33.5,118-58.8
		C923.1,876.4,977.3,799.9,999.3,713.5L999.3,713.5z"/>
	<polygon class="st0" points="523.5,390.8 498.1,422.4 596,547.9 588.4,511.4 526.7,425.5 518.6,404.7 	"/>
	<path class="st7" d="M504,253.9c-1.9,7.8-56.8,46.9-56.8,46.9l-7.7-3.6c13-10.6,23-19.6,25.7-24c8.9-14.7,14.7-94.4,10.4-104.8
		c-4.4-10.4-203.7-4.4-222.9,8.9c-4,2.8-9.2,11.7-14.9,24.4l-4.1-1.9c0,0,24.4-62.2,30.1-67.7c5.6-5.6,232.8-15.4,249.6-4.1
		C530.1,139,506,246,504,253.9z"/>
	<path class="st0" d="M231.9,204.4c0,0,28.9-74.8,31.4-75.6c2.5-0.8,40.1-3.3,40.1-3.3s-28.8,7.1-30.1,8.8c-1.3,1.7-13,43.1-13,43.1
		L231.9,204.4z"/>
	<path class="st0" d="M447.2,300.8c0,0,55.3-40,56.8-46.9c1.6-6.8,5.3-24.5,5.3-24.5s-9.1,20.6-12,22.7
		c-2.9,2.1-37.4,13.7-37.4,13.7L447.2,300.8z"/>
	<path class="st7" d="M634.5,262.7c0,0-57,60.4-87.5,88.2s-81.6,74.5-77.2,85.4c4.4,11,112.5,138,112.5,138s17.9-42,13.7-48
		c-4.2-6-82-119.3-82-119.3l12.7-13.7C526.7,393.4,658.9,271.7,634.5,262.7z"/>
	<path class="st0" d="M503.9,480.6c0,0,57.2,85.9,79,95.8C582.4,567,503.9,480.6,503.9,480.6z"/>
	<polygon class="st0" points="630,233.5 630,262.7 582.9,316.1 637.5,268.7 	"/>
	<path class="st7" d="M189.6,347.6c0,0-6.8,56.8-7.5,57.2c-0.7,0.4,91.5,102.9,91.5,102.9s32.1-7.3,27-14.6
		c-5.1-7.4-14.4-23.7-14.4-23.7l-87.1-95.2L189.6,347.6z"/>
	<polygon class="st0" points="189.9,345.5 180.3,402.7 197.2,422.3 189.7,404.7 199,367.9 	"/>
	<polygon class="st0" points="238.2,468.3 270.3,511 278.7,505.7 	"/>
	<path class="st0" d="M443.3,605.1c0,0,12.1,56.8,96,14.8c83.9-42,130.4-163.2,74.8-150.6c7.8,6.6,18.6,27.4-25.6,42.1
		c15.5,38.5,2.6,58.9-26.1,82.4c-28.8,23.6-70.7,14.3-70.7,14.3S459,633.4,443.3,605.1z"/>
	<path class="st0" d="M917.9,583.3c0,0,20.6,37.5,20.6,41.4s-3.9,53.4-38.2,95.1c-45.1-37.7-58.3-50.5-58.3-50.5l58.8,70.6
		c0,0,54.3-87.8,46.5-131.1C936,576.9,917.9,583.3,917.9,583.3z"/>
	<path class="st0" d="M526.7,904.4c0,0,42.5,28.2,45.3,27.7c2.8-0.6,41.8-9.6,41.8-9.6l-63.6-83.3c0,0,74.3,74.2,77.1,75.4
		c2.8,1.1,53.9-7.4,84.9-23.9c-22.2,13.8-93.4,47-154.1,57.8C543.4,934.1,526.7,904.4,526.7,904.4z"/>
	<path class="st0" d="M726.8,410.6c0,0,42.4,23.5-4.4,91.7c24.8-47.6,40.8-73.3,34.4-91.7C750.4,392.3,726.8,410.6,726.8,410.6z"/>
	<path class="st0" d="M376.5,686c0,0,4.3,36,127.4,3.1c-64.7,20-132,31.9-134.9,23C366.1,703.2,376.5,686,376.5,686z"/>
	<path class="st0" d="M38.6,377.9c0,0,70.7,8.5,88.6,17.6C86.4,393.2,50.8,386.6,38.6,377.9z"/>
	<path class="st8" d="M212.9,69c0,0,238.2-10.4,325.3-2.9c50.1-30.4,50.1-30.4,50.1-30.4S334.7,19.7,162,35
		C195,55.7,212.9,69,212.9,69z"/>
	<path class="st8" d="M152.9,37.1c0,0-81.9,192.5-114.4,340.8c60.3,9.5,60.3,9.5,60.3,9.5l94.6-321.4L152.9,37.1z"/>
	<path class="st0" d="M147.2,26.9c0,0,65.7,33.8,86.5,63.1C195.8,67.8,153.6,43.9,147.2,26.9z"/>
	<path class="st0" d="M356.2,356.9c0,0,92.2,58.2,98.5,61.6c-34.7-14.3-98.5-50.3-98.5-50.3V356.9z"/>
	<polygon class="st0" points="365.7,468.3 411.8,468.3 372.2,478.3 	"/>
	<path class="st5" d="M664.7,594.8c0,0,41,49.2,47.6,51.8c6.6,2.6,31.9-34.1,31.9-34.1l-52.4-38.1L664.7,594.8z"/>
	<path class="st5" d="M716.2,555.7c0,0,29.7,27.9,32.3,27c2.6-0.8,15.7-13.1,16.6-20.9c0.9-7.9-34.3-26.2-34.3-26.2L716.2,555.7z"/>
</g>
</svg>
